<svg width="43" height="26" viewBox="0 0 43 26" fill="none" xmlns="http://www.w3.org/2000/svg">
<path d="M2.25804 17.178C2.04286 18.0813 1.93046 19.0053 1.92288 19.9329C1.92288 23.1622 3.70632 25.3065 7.49714 25.3065C10.6405 25.3065 13.191 23.4736 15.0242 20.5123L13.9034 24.9288H20.1434L23.7134 10.8877C24.6051 7.32879 26.3314 5.48315 28.9522 5.48315C31.0139 5.48315 32.2959 6.74167 32.2959 8.82241C32.3061 9.48931 32.2121 10.154 32.0176 10.7932L30.1793 17.2496C29.9164 18.1387 29.7852 19.0604 29.7896 19.9863C29.7896 23.0498 31.6279 25.2966 35.473 25.2966C38.7621 25.2966 41.383 23.2183 42.8312 18.2376L40.3793 17.3057C39.1521 20.6449 38.0941 21.2473 37.2593 21.2473C36.4247 21.2473 35.9748 20.7013 35.9748 19.6058C35.9989 19.0311 36.0923 18.4612 36.253 17.908L38.0393 11.6154C38.4403 10.3216 38.6471 8.97735 38.653 7.62497C38.653 2.91725 35.7539 0.461548 32.2413 0.461548C28.9522 0.461548 25.6088 3.37424 23.9368 6.4405L25.1614 0.936234H15.6323L14.2934 5.78681H18.7551L16.0096 16.5705C13.8514 21.2782 9.88919 21.3547 9.39255 21.245C8.57599 21.0635 8.05599 20.7599 8.05599 19.713C8.07985 18.8656 8.21087 18.0244 8.44599 17.2087L12.6268 0.923519H2.03968L0.703369 5.77409H5.10509L2.25804 17.178Z" fill="white"/>
</svg>
